
        <svg width="240" height="240" xmlns="http://www.w3.org/2000/svg">
            <defs>
                <filter id="pixelate">
                    <feFlood x="0" y="0" width="1" height="1" flood-color="#FFC0CB"/>
                    <feComposite in2="SourceGraphic" operator="over"/>
                </filter>
            </defs>
            
            <!-- 背景SVG -->
                <g transform="scale(10)">
                    
  <defs>
    <radialGradient id="venomGrad" cx="50%" cy="40%">
      <stop offset="0%" style="stop-color:#FF1493;stop-opacity:1" />
      <stop offset="50%" style="stop-color:#8B008B;stop-opacity:1" />
      <stop offset="100%" style="stop-color:#4B0082;stop-opacity:1" />
    </radialGradient>
    <filter id="poison">
      <feTurbulence baseFrequency="0.8" numOctaves="1" seed="2"/>
      <feColorMatrix values="0 0 0 0 1 0 0 0 0 0.08 0 0 0 0 0.58 0 0 0 0.8 0"/>
    </filter>
  </defs>
  
  <!-- 毒の空 -->
  <rect width="24" height="24" fill="url(#venomGrad)"/>
  
  <!-- 毒の沼 -->
  <ellipse cx="12" cy="18" rx="10" ry="4" fill="#FF1493" opacity="0.4"/>
  <ellipse cx="8" cy="17" rx="4" ry="2" fill="#FF1493" opacity="0.3" filter="url(#poison)"/>
  <ellipse cx="16" cy="19" rx="3" ry="1.5" fill="#FF1493" opacity="0.3" filter="url(#poison)"/>
  
  <!-- 毒キノコ -->
  <ellipse cx="6" cy="14" rx="2" ry="1" fill="#8B008B"/>
  <rect x="5.5" y="14" width="1" height="2" fill="#4B0082"/>
  <circle cx="5.5" cy="13.5" r="0.2" fill="#FF1493"/>
  <circle cx="6.5" cy="13.8" r="0.2" fill="#FF1493"/>
  
  <!-- 大きな毒キノコ -->
  <ellipse cx="16" cy="12" rx="3" ry="1.5" fill="#8B008B"/>
  <rect x="15" y="12" width="2" height="3" fill="#4B0082"/>
  <circle cx="15" cy="11.5" r="0.3" fill="#FF1493"/>
  <circle cx="17" cy="11.8" r="0.3" fill="#FF1493"/>
  <circle cx="16" cy="11" r="0.3" fill="#FF1493"/>
  
  <!-- 毒ガス -->
  <ellipse cx="12" cy="8" rx="6" ry="3" fill="#FF1493" opacity="0.2" filter="url(#poison)"/>
  <ellipse cx="10" cy="6" rx="4" ry="2" fill="#FF1493" opacity="0.15" filter="url(#poison)"/>
  
  <!-- 毒の滴 -->
  <ellipse cx="9" cy="10" rx="0.3" ry="0.6" fill="#FF1493" opacity="0.8"/>
  <ellipse cx="14" cy="9" rx="0.3" ry="0.6" fill="#FF1493" opacity="0.7"/>


                </g>
            
            <!-- モンスター（カラーフィルター適用） -->
            <g transform="translate(12, 12) scale(9)">
                <g style="filter: hue-rotate(330deg) saturate(1.5)">
                    <rect x="8" y="2" width="1" height="1" fill="#8B0000" shape-rendering="crispEdges"/><rect x="15" y="2" width="1" height="1" fill="#8B0000" shape-rendering="crispEdges"/><rect x="7" y="3" width="1" height="1" fill="#DC143C" shape-rendering="crispEdges"/><rect x="8" y="3" width="1" height="1" fill="#DC143C" shape-rendering="crispEdges"/><rect x="15" y="3" width="1" height="1" fill="#DC143C" shape-rendering="crispEdges"/><rect x="16" y="3" width="1" height="1" fill="#DC143C" shape-rendering="crispEdges"/><rect x="6" y="4" width="1" height="1" fill="#4B0082" shape-rendering="crispEdges"/><rect x="7" y="4" width="1" height="1" fill="#4B0082" shape-rendering="crispEdges"/><rect x="8" y="4" width="1" height="1" fill="#4B0082" shape-rendering="crispEdges"/><rect x="9" y="4" width="1" height="1" fill="#4B0082" shape-rendering="crispEdges"/><rect x="10" y="4" width="1" height="1" fill="#4B0082" shape-rendering="crispEdges"/><rect x="11" y="4" width="1" height="1" fill="#4B0082" shape-rendering="crispEdges"/><rect x="12" y="4" width="1" height="1" fill="#4B0082" shape-rendering="crispEdges"/><rect x="13" y="4" width="1" height="1" fill="#4B0082" shape-rendering="crispEdges"/><rect x="14" y="4" width="1" height="1" fill="#4B0082" shape-rendering="crispEdges"/><rect x="15" y="4" width="1" height="1" fill="#4B0082" shape-rendering="crispEdges"/><rect x="16" y="4" width="1" height="1" fill="#4B0082" shape-rendering="crispEdges"/><rect x="17" y="4" width="1" height="1" fill="#4B0082" shape-rendering="crispEdges"/><rect x="5" y="5" width="1" height="1" fill="#4B0082" shape-rendering="crispEdges"/><rect x="6" y="5" width="1" height="1" fill="#4B0082" shape-rendering="crispEdges"/><rect x="7" y="5" width="1" height="1" fill="#4B0082" shape-rendering="crispEdges"/><rect x="8" y="5" width="1" height="1" fill="#4B0082" shape-rendering="crispEdges"/><rect x="9" y="5" width="1" height="1" fill="#4B0082" shape-rendering="crispEdges"/><rect x="10" y="5" width="1" height="1" fill="#4B0082" shape-rendering="crispEdges"/><rect x="11" y="5" width="1" height="1" fill="#4B0082" shape-rendering="crispEdges"/><rect x="12" y="5" width="1" height="1" fill="#4B0082" shape-rendering="crispEdges"/><rect x="13" y="5" width="1" height="1" fill="#4B0082" shape-rendering="crispEdges"/><rect x="14" y="5" width="1" height="1" fill="#4B0082" shape-rendering="crispEdges"/><rect x="15" y="5" width="1" height="1" fill="#4B0082" shape-rendering="crispEdges"/><rect x="16" y="5" width="1" height="1" fill="#4B0082" shape-rendering="crispEdges"/><rect x="17" y="5" width="1" height="1" fill="#4B0082" shape-rendering="crispEdges"/><rect x="18" y="5" width="1" height="1" fill="#4B0082" shape-rendering="crispEdges"/><rect x="5" y="6" width="1" height="1" fill="#4B0082" shape-rendering="crispEdges"/><rect x="6" y="6" width="1" height="1" fill="#4B0082" shape-rendering="crispEdges"/><rect x="7" y="6" width="1" height="1" fill="#FFE4E1" shape-rendering="crispEdges"/><rect x="8" y="6" width="1" height="1" fill="#4B0082" shape-rendering="crispEdges"/><rect x="9" y="6" width="1" height="1" fill="#FFE4E1" shape-rendering="crispEdges"/><rect x="10" y="6" width="1" height="1" fill="#4B0082" shape-rendering="crispEdges"/><rect x="11" y="6" width="1" height="1" fill="#FFE4E1" shape-rendering="crispEdges"/><rect x="12" y="6" width="1" height="1" fill="#4B0082" shape-rendering="crispEdges"/><rect x="13" y="6" width="1" height="1" fill="#FFE4E1" shape-rendering="crispEdges"/><rect x="14" y="6" width="1" height="1" fill="#4B0082" shape-rendering="crispEdges"/><rect x="15" y="6" width="1" height="1" fill="#FFE4E1" shape-rendering="crispEdges"/><rect x="16" y="6" width="1" height="1" fill="#4B0082" shape-rendering="crispEdges"/><rect x="17" y="6" width="1" height="1" fill="#4B0082" shape-rendering="crispEdges"/><rect x="18" y="6" width="1" height="1" fill="#4B0082" shape-rendering="crispEdges"/><rect x="4" y="7" width="1" height="1" fill="#4B0082" shape-rendering="crispEdges"/><rect x="5" y="7" width="1" height="1" fill="#4B0082" shape-rendering="crispEdges"/><rect x="6" y="7" width="1" height="1" fill="#FFE4E1" shape-rendering="crispEdges"/><rect x="7" y="7" width="1" height="1" fill="#FFE4E1" shape-rendering="crispEdges"/><rect x="8" y="7" width="1" height="1" fill="#FFE4E1" shape-rendering="crispEdges"/><rect x="9" y="7" width="1" height="1" fill="#FFE4E1" shape-rendering="crispEdges"/><rect x="10" y="7" width="1" height="1" fill="#FFE4E1" shape-rendering="crispEdges"/><rect x="11" y="7" width="1" height="1" fill="#FFE4E1" shape-rendering="crispEdges"/><rect x="12" y="7" width="1" height="1" fill="#FFE4E1" shape-rendering="crispEdges"/><rect x="13" y="7" width="1" height="1" fill="#FFE4E1" shape-rendering="crispEdges"/><rect x="14" y="7" width="1" height="1" fill="#FFE4E1" shape-rendering="crispEdges"/><rect x="15" y="7" width="1" height="1" fill="#FFE4E1" shape-rendering="crispEdges"/><rect x="16" y="7" width="1" height="1" fill="#FFE4E1" shape-rendering="crispEdges"/><rect x="17" y="7" width="1" height="1" fill="#4B0082" shape-rendering="crispEdges"/><rect x="18" y="7" width="1" height="1" fill="#4B0082" shape-rendering="crispEdges"/><rect x="19" y="7" width="1" height="1" fill="#4B0082" shape-rendering="crispEdges"/><rect x="4" y="8" width="1" height="1" fill="#4B0082" shape-rendering="crispEdges"/><rect x="5" y="8" width="1" height="1" fill="#4B0082" shape-rendering="crispEdges"/><rect x="6" y="8" width="1" height="1" fill="#FFE4E1" shape-rendering="crispEdges"/><rect x="7" y="8" width="1" height="1" fill="#FFE4E1" shape-rendering="crispEdges"/><rect x="8" y="8" width="1" height="1" fill="#8B0000" shape-rendering="crispEdges"/><rect x="9" y="8" width="1" height="1" fill="#FFFFFF" shape-rendering="crispEdges"/><rect x="10" y="8" width="1" height="1" fill="#8B0000" shape-rendering="crispEdges"/><rect x="11" y="8" width="1" height="1" fill="#FFE4E1" shape-rendering="crispEdges"/><rect x="12" y="8" width="1" height="1" fill="#FFE4E1" shape-rendering="crispEdges"/><rect x="13" y="8" width="1" height="1" fill="#8B0000" shape-rendering="crispEdges"/><rect x="14" y="8" width="1" height="1" fill="#FFFFFF" shape-rendering="crispEdges"/><rect x="15" y="8" width="1" height="1" fill="#8B0000" shape-rendering="crispEdges"/><rect x="16" y="8" width="1" height="1" fill="#FFE4E1" shape-rendering="crispEdges"/><rect x="17" y="8" width="1" height="1" fill="#EEccc5" shape-rendering="crispEdges"/><rect x="18" y="8" width="1" height="1" fill="#4B0082" shape-rendering="crispEdges"/><rect x="19" y="8" width="1" height="1" fill="#4B0082" shape-rendering="crispEdges"/><rect x="4" y="9" width="1" height="1" fill="#4B0082" shape-rendering="crispEdges"/><rect x="5" y="9" width="1" height="1" fill="#4B0082" shape-rendering="crispEdges"/><rect x="6" y="9" width="1" height="1" fill="#FFE4E1" shape-rendering="crispEdges"/><rect x="7" y="9" width="1" height="1" fill="#FFE4E1" shape-rendering="crispEdges"/><rect x="8" y="9" width="1" height="1" fill="#8B0000" shape-rendering="crispEdges"/><rect x="9" y="9" width="1" height="1" fill="#DC143C" shape-rendering="crispEdges"/><rect x="10" y="9" width="1" height="1" fill="#8B0000" shape-rendering="crispEdges"/><rect x="11" y="9" width="1" height="1" fill="#FFE4E1" shape-rendering="crispEdges"/><rect x="12" y="9" width="1" height="1" fill="#FFE4E1" shape-rendering="crispEdges"/><rect x="13" y="9" width="1" height="1" fill="#8B0000" shape-rendering="crispEdges"/><rect x="14" y="9" width="1" height="1" fill="#f06a85" shape-rendering="crispEdges"/><rect x="15" y="9" width="1" height="1" fill="#8B0000" shape-rendering="crispEdges"/><rect x="16" y="9" width="1" height="1" fill="#FFE4E1" shape-rendering="crispEdges"/><rect x="17" y="9" width="1" height="1" fill="#EEccc5" shape-rendering="crispEdges"/><rect x="18" y="9" width="1" height="1" fill="#4B0082" shape-rendering="crispEdges"/><rect x="19" y="9" width="1" height="1" fill="#4B0082" shape-rendering="crispEdges"/><rect x="4" y="10" width="1" height="1" fill="#4B0082" shape-rendering="crispEdges"/><rect x="5" y="10" width="1" height="1" fill="#4B0082" shape-rendering="crispEdges"/><rect x="6" y="10" width="1" height="1" fill="#FFE4E1" shape-rendering="crispEdges"/><rect x="7" y="10" width="1" height="1" fill="#FFE4E1" shape-rendering="crispEdges"/><rect x="8" y="10" width="1" height="1" fill="#FFE4E1" shape-rendering="crispEdges"/><rect x="9" y="10" width="1" height="1" fill="#FFE4E1" shape-rendering="crispEdges"/><rect x="10" y="10" width="1" height="1" fill="#FFE4E1" shape-rendering="crispEdges"/><rect x="11" y="10" width="1" height="1" fill="#EEccc5" shape-rendering="crispEdges"/><rect x="12" y="10" width="1" height="1" fill="#EEccc5" shape-rendering="crispEdges"/><rect x="13" y="10" width="1" height="1" fill="#FFE4E1" shape-rendering="crispEdges"/><rect x="14" y="10" width="1" height="1" fill="#FFE4E1" shape-rendering="crispEdges"/><rect x="15" y="10" width="1" height="1" fill="#FFE4E1" shape-rendering="crispEdges"/><rect x="16" y="10" width="1" height="1" fill="#FFE4E1" shape-rendering="crispEdges"/><rect x="17" y="10" width="1" height="1" fill="#EEccc5" shape-rendering="crispEdges"/><rect x="18" y="10" width="1" height="1" fill="#4B0082" shape-rendering="crispEdges"/><rect x="19" y="10" width="1" height="1" fill="#4B0082" shape-rendering="crispEdges"/><rect x="4" y="11" width="1" height="1" fill="#4B0082" shape-rendering="crispEdges"/><rect x="5" y="11" width="1" height="1" fill="#4B0082" shape-rendering="crispEdges"/><rect x="6" y="11" width="1" height="1" fill="#FFE4E1" shape-rendering="crispEdges"/><rect x="7" y="11" width="1" height="1" fill="#FFE4E1" shape-rendering="crispEdges"/><rect x="8" y="11" width="1" height="1" fill="#FFE4E1" shape-rendering="crispEdges"/><rect x="9" y="11" width="1" height="1" fill="#FFE4E1" shape-rendering="crispEdges"/><rect x="10" y="11" width="1" height="1" fill="#DC143C" shape-rendering="crispEdges"/><rect x="11" y="11" width="1" height="1" fill="#DC143C" shape-rendering="crispEdges"/><rect x="12" y="11" width="1" height="1" fill="#f06a85" shape-rendering="crispEdges"/><rect x="13" y="11" width="1" height="1" fill="#DC143C" shape-rendering="crispEdges"/><rect x="14" y="11" width="1" height="1" fill="#FFE4E1" shape-rendering="crispEdges"/><rect x="15" y="11" width="1" height="1" fill="#FFE4E1" shape-rendering="crispEdges"/><rect x="16" y="11" width="1" height="1" fill="#FFE4E1" shape-rendering="crispEdges"/><rect x="17" y="11" width="1" height="1" fill="#EEccc5" shape-rendering="crispEdges"/><rect x="18" y="11" width="1" height="1" fill="#4B0082" shape-rendering="crispEdges"/><rect x="19" y="11" width="1" height="1" fill="#4B0082" shape-rendering="crispEdges"/><rect x="4" y="12" width="1" height="1" fill="#4B0082" shape-rendering="crispEdges"/><rect x="5" y="12" width="1" height="1" fill="#4B0082" shape-rendering="crispEdges"/><rect x="6" y="12" width="1" height="1" fill="#4B0082" shape-rendering="crispEdges"/><rect x="7" y="12" width="1" height="1" fill="#FFE4E1" shape-rendering="crispEdges"/><rect x="8" y="12" width="1" height="1" fill="#FFE4E1" shape-rendering="crispEdges"/><rect x="9" y="12" width="1" height="1" fill="#FFE4E1" shape-rendering="crispEdges"/><rect x="10" y="12" width="1" height="1" fill="#FFE4E1" shape-rendering="crispEdges"/><rect x="11" y="12" width="1" height="1" fill="#FFE4E1" shape-rendering="crispEdges"/><rect x="12" y="12" width="1" height="1" fill="#FFE4E1" shape-rendering="crispEdges"/><rect x="13" y="12" width="1" height="1" fill="#FFE4E1" shape-rendering="crispEdges"/><rect x="14" y="12" width="1" height="1" fill="#FFE4E1" shape-rendering="crispEdges"/><rect x="15" y="12" width="1" height="1" fill="#EEccc5" shape-rendering="crispEdges"/><rect x="16" y="12" width="1" height="1" fill="#EEccc5" shape-rendering="crispEdges"/><rect x="17" y="12" width="1" height="1" fill="#4B0082" shape-rendering="crispEdges"/><rect x="18" y="12" width="1" height="1" fill="#4B0082" shape-rendering="crispEdges"/><rect x="19" y="12" width="1" height="1" fill="#4B0082" shape-rendering="crispEdges"/><rect x="3" y="13" width="1" height="1" fill="#4B0000" shape-rendering="crispEdges"/><rect x="4" y="13" width="1" height="1" fill="#4B0000" shape-rendering="crispEdges"/><rect x="5" y="13" width="1" height="1" fill="#4B0082" shape-rendering="crispEdges"/><rect x="6" y="13" width="1" height="1" fill="#4B0082" shape-rendering="crispEdges"/><rect x="7" y="13" width="1" height="1" fill="#4B0082" shape-rendering="crispEdges"/><rect x="8" y="13" width="1" height="1" fill="#4B0082" shape-rendering="crispEdges"/><rect x="9" y="13" width="1" height="1" fill="#4B0082" shape-rendering="crispEdges"/><rect x="10" y="13" width="1" height="1" fill="#FFE4E1" shape-rendering="crispEdges"/><rect x="11" y="13" width="1" height="1" fill="#FFE4E1" shape-rendering="crispEdges"/><rect x="12" y="13" width="1" height="1" fill="#FFE4E1" shape-rendering="crispEdges"/><rect x="13" y="13" width="1" height="1" fill="#EEccc5" shape-rendering="crispEdges"/><rect x="14" y="13" width="1" height="1" fill="#EEccc5" shape-rendering="crispEdges"/><rect x="15" y="13" width="1" height="1" fill="#4B0082" shape-rendering="crispEdges"/><rect x="16" y="13" width="1" height="1" fill="#4B0082" shape-rendering="crispEdges"/><rect x="17" y="13" width="1" height="1" fill="#4B0082" shape-rendering="crispEdges"/><rect x="18" y="13" width="1" height="1" fill="#4B0000" shape-rendering="crispEdges"/><rect x="19" y="13" width="1" height="1" fill="#4B0000" shape-rendering="crispEdges"/><rect x="20" y="13" width="1" height="1" fill="#4B0000" shape-rendering="crispEdges"/><rect x="2" y="14" width="1" height="1" fill="#4B0000" shape-rendering="crispEdges"/><rect x="3" y="14" width="1" height="1" fill="#4B0000" shape-rendering="crispEdges"/><rect x="4" y="14" width="1" height="1" fill="#4B0000" shape-rendering="crispEdges"/><rect x="5" y="14" width="1" height="1" fill="#4B0000" shape-rendering="crispEdges"/><rect x="6" y="14" width="1" height="1" fill="#4B0082" shape-rendering="crispEdges"/><rect x="7" y="14" width="1" height="1" fill="#4B0082" shape-rendering="crispEdges"/><rect x="8" y="14" width="1" height="1" fill="#4B0082" shape-rendering="crispEdges"/><rect x="9" y="14" width="1" height="1" fill="#8B0000" shape-rendering="crispEdges"/><rect x="10" y="14" width="1" height="1" fill="#8B0000" shape-rendering="crispEdges"/><rect x="11" y="14" width="1" height="1" fill="#8B0000" shape-rendering="crispEdges"/><rect x="12" y="14" width="1" height="1" fill="#8B0000" shape-rendering="crispEdges"/><rect x="13" y="14" width="1" height="1" fill="#8B0000" shape-rendering="crispEdges"/><rect x="14" y="14" width="1" height="1" fill="#4B0082" shape-rendering="crispEdges"/><rect x="15" y="14" width="1" height="1" fill="#4B0082" shape-rendering="crispEdges"/><rect x="16" y="14" width="1" height="1" fill="#4B0082" shape-rendering="crispEdges"/><rect x="17" y="14" width="1" height="1" fill="#4B0082" shape-rendering="crispEdges"/><rect x="18" y="14" width="1" height="1" fill="#4B0000" shape-rendering="crispEdges"/><rect x="19" y="14" width="1" height="1" fill="#4B0000" shape-rendering="crispEdges"/><rect x="20" y="14" width="1" height="1" fill="#4B0000" shape-rendering="crispEdges"/><rect x="21" y="14" width="1" height="1" fill="#4B0000" shape-rendering="crispEdges"/><rect x="2" y="15" width="1" height="1" fill="#4B0000" shape-rendering="crispEdges"/><rect x="3" y="15" width="1" height="1" fill="#4B0000" shape-rendering="crispEdges"/><rect x="4" y="15" width="1" height="1" fill="#4B0000" shape-rendering="crispEdges"/><rect x="5" y="15" width="1" height="1" fill="#4B0000" shape-rendering="crispEdges"/><rect x="6" y="15" width="1" height="1" fill="#FFE4E1" shape-rendering="crispEdges"/><rect x="7" y="15" width="1" height="1" fill="#FFE4E1" shape-rendering="crispEdges"/><rect x="8" y="15" width="1" height="1" fill="#8B0000" shape-rendering="crispEdges"/><rect x="9" y="15" width="1" height="1" fill="#8B0000" shape-rendering="crispEdges"/><rect x="10" y="15" width="1" height="1" fill="#8B0000" shape-rendering="crispEdges"/><rect x="11" y="15" width="1" height="1" fill="#8B0000" shape-rendering="crispEdges"/><rect x="12" y="15" width="1" height="1" fill="#8B0000" shape-rendering="crispEdges"/><rect x="13" y="15" width="1" height="1" fill="#8B0000" shape-rendering="crispEdges"/><rect x="14" y="15" width="1" height="1" fill="#8B0000" shape-rendering="crispEdges"/><rect x="15" y="15" width="1" height="1" fill="#FFE4E1" shape-rendering="crispEdges"/><rect x="16" y="15" width="1" height="1" fill="#FFE4E1" shape-rendering="crispEdges"/><rect x="17" y="15" width="1" height="1" fill="#4B0000" shape-rendering="crispEdges"/><rect x="18" y="15" width="1" height="1" fill="#4B0000" shape-rendering="crispEdges"/><rect x="19" y="15" width="1" height="1" fill="#4B0000" shape-rendering="crispEdges"/><rect x="20" y="15" width="1" height="1" fill="#4B0000" shape-rendering="crispEdges"/><rect x="21" y="15" width="1" height="1" fill="#4B0000" shape-rendering="crispEdges"/><rect x="3" y="16" width="1" height="1" fill="#4B0000" shape-rendering="crispEdges"/><rect x="4" y="16" width="1" height="1" fill="#4B0000" shape-rendering="crispEdges"/><rect x="6" y="16" width="1" height="1" fill="#FFE4E1" shape-rendering="crispEdges"/><rect x="7" y="16" width="1" height="1" fill="#FFE4E1" shape-rendering="crispEdges"/><rect x="8" y="16" width="1" height="1" fill="#8B0000" shape-rendering="crispEdges"/><rect x="9" y="16" width="1" height="1" fill="#8B0000" shape-rendering="crispEdges"/><rect x="10" y="16" width="1" height="1" fill="#8B0000" shape-rendering="crispEdges"/><rect x="11" y="16" width="1" height="1" fill="#8B0000" shape-rendering="crispEdges"/><rect x="12" y="16" width="1" height="1" fill="#8B0000" shape-rendering="crispEdges"/><rect x="13" y="16" width="1" height="1" fill="#8B0000" shape-rendering="crispEdges"/><rect x="14" y="16" width="1" height="1" fill="#8B0000" shape-rendering="crispEdges"/><rect x="15" y="16" width="1" height="1" fill="#FFE4E1" shape-rendering="crispEdges"/><rect x="16" y="16" width="1" height="1" fill="#FFE4E1" shape-rendering="crispEdges"/><rect x="17" y="16" width="1" height="1" fill="#4B0082" shape-rendering="crispEdges"/><rect x="19" y="16" width="1" height="1" fill="#4B0000" shape-rendering="crispEdges"/><rect x="20" y="16" width="1" height="1" fill="#4B0000" shape-rendering="crispEdges"/><rect x="21" y="16" width="1" height="1" fill="#4B0000" shape-rendering="crispEdges"/><rect x="4" y="17" width="1" height="1" fill="#4B0000" shape-rendering="crispEdges"/><rect x="6" y="17" width="1" height="1" fill="#FFE4E1" shape-rendering="crispEdges"/><rect x="7" y="17" width="1" height="1" fill="#FFE4E1" shape-rendering="crispEdges"/><rect x="8" y="17" width="1" height="1" fill="#FFE4E1" shape-rendering="crispEdges"/><rect x="9" y="17" width="1" height="1" fill="#9b1717" shape-rendering="crispEdges"/><rect x="10" y="17" width="1" height="1" fill="#9b1717" shape-rendering="crispEdges"/><rect x="11" y="17" width="1" height="1" fill="#9b1717" shape-rendering="crispEdges"/><rect x="12" y="17" width="1" height="1" fill="#9b1717" shape-rendering="crispEdges"/><rect x="13" y="17" width="1" height="1" fill="#8B0000" shape-rendering="crispEdges"/><rect x="14" y="17" width="1" height="1" fill="#FFE4E1" shape-rendering="crispEdges"/><rect x="15" y="17" width="1" height="1" fill="#FFE4E1" shape-rendering="crispEdges"/><rect x="16" y="17" width="1" height="1" fill="#8B0000" shape-rendering="crispEdges"/><rect x="17" y="17" width="1" height="1" fill="#4B0082" shape-rendering="crispEdges"/><rect x="21" y="17" width="1" height="1" fill="#4B0000" shape-rendering="crispEdges"/><rect x="4" y="18" width="1" height="1" fill="#4B0000" shape-rendering="crispEdges"/><rect x="7" y="18" width="1" height="1" fill="#FFE4E1" shape-rendering="crispEdges"/><rect x="8" y="18" width="1" height="1" fill="#FFE4E1" shape-rendering="crispEdges"/><rect x="9" y="18" width="1" height="1" fill="#8B0000" shape-rendering="crispEdges"/><rect x="10" y="18" width="1" height="1" fill="#8B0000" shape-rendering="crispEdges"/><rect x="11" y="18" width="1" height="1" fill="#8B0000" shape-rendering="crispEdges"/><rect x="12" y="18" width="1" height="1" fill="#8B0000" shape-rendering="crispEdges"/><rect x="13" y="18" width="1" height="1" fill="#6e0202" shape-rendering="crispEdges"/><rect x="14" y="18" width="1" height="1" fill="#FFE4E1" shape-rendering="crispEdges"/><rect x="15" y="18" width="1" height="1" fill="#FFE4E1" shape-rendering="crispEdges"/><rect x="16" y="18" width="1" height="1" fill="#6e0202" shape-rendering="crispEdges"/><rect x="17" y="18" width="1" height="1" fill="#6e0202" shape-rendering="crispEdges"/><rect x="19" y="18" width="1" height="1" fill="#DC143C" shape-rendering="crispEdges"/><rect x="8" y="19" width="1" height="1" fill="#FFE4E1" shape-rendering="crispEdges"/><rect x="9" y="19" width="1" height="1" fill="#FFE4E1" shape-rendering="crispEdges"/><rect x="10" y="19" width="1" height="1" fill="#6e0202" shape-rendering="crispEdges"/><rect x="11" y="19" width="1" height="1" fill="#6e0202" shape-rendering="crispEdges"/><rect x="12" y="19" width="1" height="1" fill="#6e0202" shape-rendering="crispEdges"/><rect x="13" y="19" width="1" height="1" fill="#FFE4E1" shape-rendering="crispEdges"/><rect x="14" y="19" width="1" height="1" fill="#FFE4E1" shape-rendering="crispEdges"/><rect x="15" y="19" width="1" height="1" fill="#d5b4ae" shape-rendering="crispEdges"/><rect x="16" y="19" width="1" height="1" fill="#FFE4E1" shape-rendering="crispEdges"/><rect x="17" y="19" width="1" height="1" fill="#FFE4E1" shape-rendering="crispEdges"/><rect x="18" y="19" width="1" height="1" fill="#6e0202" shape-rendering="crispEdges"/><rect x="8" y="20" width="1" height="1" fill="#FFE4E1" shape-rendering="crispEdges"/><rect x="9" y="20" width="1" height="1" fill="#FFE4E1" shape-rendering="crispEdges"/><rect x="11" y="20" width="1" height="1" fill="#EEccc5" shape-rendering="crispEdges"/><rect x="12" y="20" width="1" height="1" fill="#c8a8a2" shape-rendering="crispEdges"/><rect x="13" y="20" width="1" height="1" fill="#FFE4E1" shape-rendering="crispEdges"/><rect x="14" y="20" width="1" height="1" fill="#c8a8a2" shape-rendering="crispEdges"/><rect x="15" y="20" width="1" height="1" fill="#EEccc5" shape-rendering="crispEdges"/><rect x="16" y="20" width="1" height="1" fill="#FFE4E1" shape-rendering="crispEdges"/><rect x="17" y="20" width="1" height="1" fill="#FFE4E1" shape-rendering="crispEdges"/><rect x="8" y="21" width="1" height="1" fill="#FFE4E1" shape-rendering="crispEdges"/><rect x="9" y="21" width="1" height="1" fill="#FFE4E1" shape-rendering="crispEdges"/><rect x="11" y="21" width="1" height="1" fill="#EEccc5" shape-rendering="crispEdges"/><rect x="12" y="21" width="1" height="1" fill="#c8a8a2" shape-rendering="crispEdges"/><rect x="13" y="21" width="1" height="1" fill="#FFE4E1" shape-rendering="crispEdges"/><rect x="14" y="21" width="1" height="1" fill="#EEccc5" shape-rendering="crispEdges"/><rect x="15" y="21" width="1" height="1" fill="#FFE4E1" shape-rendering="crispEdges"/><rect x="16" y="21" width="1" height="1" fill="#FFE4E1" shape-rendering="crispEdges"/><rect x="9" y="22" width="1" height="1" fill="#FFE4E1" shape-rendering="crispEdges"/><rect x="13" y="22" width="1" height="1" fill="#FFE4E1" shape-rendering="crispEdges"/>
                </g>
            </g>
            
            <!-- アイテム（モンスターの近くに配置） -->
            <g transform="translate(119, 90) scale(6)">
                
  <!-- 魔法使いの杖 (2/3サイズ) -->
  <!-- 杖の柄 -->
  <rect x="11" y="8" width="1" height="10" fill="#8B4513"/>
  <rect x="10" y="9" width="1" height="8" fill="#654321"/>
  <rect x="12" y="9" width="1" height="8" fill="#A0522D"/>
  <!-- 宝珠部分 -->
  <rect x="9" y="4" width="5" height="1" fill="#9370DB"/>
  <rect x="8" y="5" width="7" height="1" fill="#9370DB"/>
  <rect x="8" y="6" width="7" height="1" fill="#9370DB"/>
  <rect x="8" y="7" width="7" height="1" fill="#9370DB"/>
  <rect x="9" y="8" width="5" height="1" fill="#9370DB"/>
  <!-- 宝珠の光 -->
  <rect x="10" y="5" width="2" height="1" fill="#DDA0DD"/>
  <rect x="11" y="6" width="2" height="1" fill="#DDA0DD"/>
  <!-- 宝珠の影 -->
  <rect x="8" y="7" width="2" height="1" fill="#6A0DAD"/>
  <rect x="13" y="7" width="2" height="1" fill="#6A0DAD"/>
  <!-- 魔法の輝き -->
  <rect x="11" y="2" width="1" height="1" fill="#FFD700"/>
  <rect x="7" y="5" width="1" height="1" fill="#FFD700"/>
  <rect x="15" y="5" width="1" height="1" fill="#FFD700"/>
  <rect x="11" y="9" width="1" height="1" fill="#FFD700"/>
  <!-- 杖の底 -->
  <rect x="10" y="18" width="3" height="1" fill="#2F2F2F"/>

            </g>
            
            <!-- エフェクト -->
            <g transform="scale(10)">
                
	<defs>
		<filter id="pixelate">
			<feFlood x="0" y="0" width="1" height="1" flood-color="#E0FFFF"/>
			<feComposite in2="SourceGraphic" operator="over"/>
		</filter>
	</defs>

	<!-- 最初の2秒間だけ透明 -->
	<g id="wrapper" opacity="0">
		<animate attributeName="opacity" from="0" to="1" begin="2s" dur="1s" fill="freeze"/>

		<g>
			<g>
				<g>
					<animateTransform attributeName="transform" type="translate" values="2,2; 8,4; 15,2; 20,6; 18,12; 10,15; 3,10; 2,2" dur="5s" repeatCount="indefinite"/>
					<g>
						<rect x="2" y="1" width="4" height="1" fill="#000000"/>
						<rect x="0" y="2" width="8" height="1" fill="#000000">
							<animate attributeName="width" values="8;4;8;4;8" dur="0.3s" repeatCount="indefinite"/>
							<animate attributeName="x" values="0;2;0;2;0" dur="0.3s" repeatCount="indefinite"/>
						</rect>
						<rect x="3" y="2" width="2" height="1" fill="#8B008B"/>
						<animate attributeName="opacity" values="0.4;0.9;0.4" dur="2s" repeatCount="indefinite"/>
					</g>
				</g>
				<g>
					<animateTransform attributeName="transform" type="translate" values="18,15; 12,12; 5,14; 2,8; 6,4; 14,6; 20,10; 18,15" dur="4s" begin="1s" repeatCount="indefinite"/>
					<g>
						<rect x="2" y="1" width="4" height="1" fill="#000000"/>
						<rect x="0" y="2" width="8" height="1" fill="#000000">
							<animate attributeName="width" values="8;4;8;4;8" dur="0.3s" repeatCount="indefinite"/>
							<animate attributeName="x" values="0;2;0;2;0" dur="0.3s" repeatCount="indefinite"/>
						</rect>
						<rect x="3" y="2" width="2" height="1" fill="#4B0082"/>
						<animate attributeName="opacity" values="0.3;0.8;0.3" dur="2s" begin="1s" repeatCount="indefinite"/>
					</g>
				</g>
				<g>
					<animateTransform attributeName="transform" type="translate" values="10,8; 16,3; 20,8; 15,12; 8,10; 4,6; 8,2; 10,8" dur="3.5s" begin="2s" repeatCount="indefinite"/>
					<g>
						<rect x="2" y="1" width="4" height="1" fill="#000000"/>
						<rect x="0" y="2" width="8" height="1" fill="#000000">
							<animate attributeName="width" values="8;4;8;4;8" dur="0.3s" repeatCount="indefinite"/>
							<animate attributeName="x" values="0;2;0;2;0" dur="0.3s" repeatCount="indefinite"/>
						</rect>
						<rect x="3" y="2" width="2" height="1" fill="#2F4F4F"/>
						<animate attributeName="opacity" values="0.5;1;0.5" dur="2s" begin="2s" repeatCount="indefinite"/>
					</g>
				</g>
			</g>
		</g>
	</g>



            </g>
        </svg>
    