<svg viewBox="0 0 24 24" xmlns="http://www.w3.org/2000/svg">
  <!-- ピクセルアート風のアミュレット -->
  <!-- チェーン部分（銀）- 下半分のみ -->
  <rect x="8" y="5" width="1" height="1" fill="#C0C0C0"/>
  <rect x="15" y="5" width="1" height="1" fill="#C0C0C0"/>
  <rect x="8" y="6" width="1" height="1" fill="#C0C0C0"/>
  <rect x="15" y="6" width="1" height="1" fill="#C0C0C0"/>
  
  <!-- アミュレット本体（外枠：金） -->
  <rect x="9" y="7" width="6" height="1" fill="#FFD700"/>
  <rect x="8" y="8" width="8" height="1" fill="#FFD700"/>
  <rect x="7" y="9" width="10" height="1" fill="#FFD700"/>
  <rect x="7" y="10" width="10" height="1" fill="#FFD700"/>
  <rect x="7" y="11" width="10" height="1" fill="#FFD700"/>
  <rect x="8" y="12" width="8" height="1" fill="#FFD700"/>
  <rect x="9" y="13" width="6" height="1" fill="#FFD700"/>
  <rect x="11" y="14" width="2" height="1" fill="#FFD700"/>
  
  <!-- 中心の宝石（紫） -->
  <rect x="10" y="9" width="4" height="1" fill="#9370DB"/>
  <rect x="9" y="10" width="6" height="1" fill="#9370DB"/>
  <rect x="10" y="11" width="4" height="1" fill="#9370DB"/>
  
  <!-- 宝石のハイライト（薄紫） -->
  <rect x="11" y="10" width="2" height="1" fill="#DDA0DD"/>
  
  <!-- 金属のハイライト -->
  <rect x="9" y="8" width="2" height="1" fill="#FFFFE0"/>
  <rect x="8" y="9" width="1" height="1" fill="#FFFFE0"/>
  
  <!-- シャドウ（濃い金） -->
  <rect x="14" y="12" width="1" height="1" fill="#DAA520"/>
  <rect x="15" y="11" width="1" height="1" fill="#DAA520"/>
  <rect x="12" y="13" width="2" height="1" fill="#DAA520"/>
</svg>