<svg viewBox="0 0 24 24" xmlns="http://www.w3.org/2000/svg">
  <!-- 引きちぎられた人の腕 (2/3サイズ、90度回転) -->
  <g transform="rotate(90 12 12)">
    <!-- 肩の断面 -->
    <rect x="8" y="5" width="4" height="2" fill="#8B0000"/>
    <rect x="9" y="6" width="2" height="1" fill="#DC143C"/>
    <!-- 上腕 -->
    <rect x="9" y="7" width="3" height="4" fill="#F5DEB3"/>
    <rect x="8" y="8" width="1" height="2" fill="#DEB887"/>
    <rect x="12" y="8" width="1" height="2" fill="#FFE4B5"/>
    <!-- 肘 -->
    <rect x="9" y="11" width="3" height="1" fill="#DEB887"/>
    <!-- 前腕 -->
    <rect x="10" y="12" width="3" height="4" fill="#F5DEB3"/>
    <rect x="9" y="13" width="1" height="2" fill="#DEB887"/>
    <rect x="13" y="13" width="1" height="2" fill="#FFE4B5"/>
    <!-- 手首 -->
    <rect x="10" y="16" width="3" height="1" fill="#DEB887"/>
    <!-- 手 -->
    <rect x="9" y="17" width="4" height="2" fill="#F5DEB3"/>
    <rect x="8" y="18" width="1" height="1" fill="#F5DEB3"/>
    <rect x="13" y="18" width="1" height="1" fill="#F5DEB3"/>
    <rect x="14" y="17" width="1" height="1" fill="#F5DEB3"/>
    <!-- 血痕 -->
    <rect x="8" y="4" width="1" height="1" fill="#8B0000"/>
    <rect x="11" y="4" width="1" height="1" fill="#8B0000"/>
    <rect x="9" y="3" width="1" height="1" fill="#DC143C"/>
    <!-- 爪 -->
    <rect x="9" y="19" width="1" height="1" fill="#FFE4E1"/>
    <rect x="11" y="19" width="1" height="1" fill="#FFE4E1"/>
    <rect x="13" y="19" width="1" height="1" fill="#FFE4E1"/>
  </g>
  <!-- 大量の血液 (回転後の位置に合わせて配置) -->
  <!-- 肩から垂れる血 -->
  <rect x="17" y="8" width="1" height="4" fill="#8B0000"/>
  <rect x="17" y="12" width="1" height="3" fill="#DC143C"/>
  <rect x="17" y="15" width="1" height="2" fill="#8B0000"/>
  <rect x="17" y="17" width="1" height="1" fill="#DC143C"/>
  
  <rect x="18" y="9" width="1" height="5" fill="#DC143C"/>
  <rect x="18" y="14" width="1" height="4" fill="#8B0000"/>
  <rect x="18" y="18" width="1" height="2" fill="#DC143C"/>
  
  <rect x="16" y="10" width="1" height="3" fill="#8B0000"/>
  <rect x="16" y="13" width="1" height="5" fill="#DC143C"/>
  <rect x="16" y="18" width="1" height="1" fill="#8B0000"/>
  
  <!-- 血だまり -->
  <rect x="15" y="19" width="5" height="1" fill="#8B0000"/>
  <rect x="15" y="20" width="4" height="1" fill="#DC143C"/>
  
  <!-- 飛び散った血 -->
  <rect x="19" y="10" width="1" height="1" fill="#DC143C"/>
  <rect x="20" y="11" width="1" height="1" fill="#8B0000"/>
  <rect x="19" y="13" width="1" height="1" fill="#8B0000"/>
  <rect x="20" y="15" width="1" height="1" fill="#DC143C"/>
  <rect x="15" y="12" width="1" height="1" fill="#8B0000"/>
  <rect x="14" y="14" width="1" height="1" fill="#DC143C"/>
</svg>