<svg viewBox="0 0 24 24" xmlns="http://www.w3.org/2000/svg">
  <!-- ぶら下がった生首 (2/3サイズ) -->
  <g transform="translate(0, 3)">
    <!-- 髪の毛 -->
    <rect x="8" y="7" width="8" height="2" fill="#2F4F4F"/>
    <rect x="7" y="8" width="10" height="1" fill="#2F4F4F"/>
    <rect x="7" y="9" width="2" height="2" fill="#2F4F4F"/>
    <rect x="15" y="9" width="2" height="2" fill="#2F4F4F"/>
    <!-- 顔 -->
    <rect x="9" y="9" width="6" height="6" fill="#C0C0C0"/>
    <rect x="8" y="10" width="8" height="4" fill="#C0C0C0"/>
    <rect x="9" y="15" width="6" height="1" fill="#C0C0C0"/>
    <!-- 目 (閉じている) -->
    <rect x="10" y="11" width="2" height="1" fill="#000000"/>
    <rect x="13" y="11" width="2" height="1" fill="#000000"/>
    <!-- 口 (開いている) -->
    <rect x="11" y="13" width="3" height="1" fill="#000000"/>
    <rect x="11" y="14" width="3" height="1" fill="#8B0000"/>
    <!-- 血 -->
    <rect x="10" y="16" width="1" height="2" fill="#8B0000"/>
    <rect x="11" y="16" width="1" height="3" fill="#DC143C"/>
    <rect x="12" y="16" width="1" height="3" fill="#8B0000"/>
    <rect x="13" y="16" width="1" height="2" fill="#DC143C"/>
    <rect x="14" y="16" width="1" height="2" fill="#8B0000"/>
    
    <!-- 飛び散る血 -->
    <rect x="9" y="17" width="1" height="1" fill="#DC143C"/>
    <rect x="15" y="17" width="1" height="1" fill="#DC143C"/>
    
    <!-- 口からの血 -->
    <rect x="12" y="15" width="1" height="2" fill="#DC143C"/>
    <!-- 首の断面 -->
    <rect x="10" y="16" width="5" height="1" fill="#8B0000"/>
    <!-- 影 -->
    <rect x="8" y="11" width="1" height="3" fill="#808080"/>
    <rect x="16" y="11" width="1" height="3" fill="#808080"/>
  </g>
</svg>