<svg viewBox="0 0 24 24" xmlns="http://www.w3.org/2000/svg">
  <!-- 死神の鎌 (2/3サイズ、反転) -->
  <!-- 柄 -->
  <rect x="11" y="4" width="1" height="14" fill="#8B4513"/>
  <rect x="12" y="5" width="1" height="13" fill="#654321"/>
  <!-- 刃の接続部 -->
  <rect x="10" y="4" width="3" height="1" fill="#2F2F2F"/>
  <rect x="10" y="5" width="3" height="1" fill="#4A4A4A"/>
  <!-- 刃 -->
  <rect x="11" y="6" width="7" height="1" fill="#C0C0C0"/>
  <rect x="13" y="7" width="6" height="1" fill="#C0C0C0"/>
  <rect x="14" y="8" width="5" height="1" fill="#C0C0C0"/>
  <rect x="15" y="9" width="4" height="1" fill="#C0C0C0"/>
  <rect x="15" y="10" width="3" height="1" fill="#C0C0C0"/>
  <rect x="16" y="11" width="2" height="1" fill="#C0C0C0"/>
  <rect x="16" y="12" width="1" height="1" fill="#C0C0C0"/>
  <!-- 刃の光沢 -->
  <rect x="14" y="6" width="3" height="1" fill="#E5E5E5"/>
  <rect x="16" y="8" width="2" height="1" fill="#E5E5E5"/>
  <!-- 刃の影 -->
  <rect x="13" y="7" width="1" height="3" fill="#808080"/>
  <!-- 柄の装飾 -->
  <rect x="11" y="18" width="2" height="2" fill="#8B0000"/>
  <rect x="10" y="19" width="4" height="1" fill="#8B0000"/>
</svg>