<svg viewBox="0 0 24 24" xmlns="http://www.w3.org/2000/svg">
<!-- Base darkness -->
<rect x="0" y="0" width="24" height="24" fill="#000000"/>

<!-- Depth layers -->
<rect x="2" y="2" width="20" height="20" fill="#0A0A0A"/>
<rect x="4" y="4" width="16" height="16" fill="#141414"/>
<rect x="6" y="6" width="12" height="12" fill="#1E1E1E"/>
<rect x="8" y="8" width="8" height="8" fill="#282828"/>
<rect x="10" y="10" width="4" height="4" fill="#323232"/>
<rect x="11" y="11" width="2" height="2" fill="#3C3C3C"/>

<!-- Purple void accents -->
<rect x="11" y="11" width="2" height="2" fill="#1A0033"/>
<rect x="9" y="9" width="1" height="1" fill="#2D004D"/>
<rect x="14" y="9" width="1" height="1" fill="#2D004D"/>
<rect x="9" y="14" width="1" height="1" fill="#2D004D"/>
<rect x="14" y="14" width="1" height="1" fill="#2D004D"/>

<!-- Floating particles -->
<rect x="3" y="5" width="1" height="1" fill="#4B0082"/>
<rect x="19" y="7" width="1" height="1" fill="#4B0082"/>
<rect x="5" y="18" width="1" height="1" fill="#4B0082"/>
<rect x="17" y="16" width="1" height="1" fill="#4B0082"/>

<!-- Edge distortion -->
<rect x="0" y="0" width="2" height="24" fill="#0A0033" opacity="0.7"/>
<rect x="22" y="0" width="2" height="24" fill="#0A0033" opacity="0.7"/>
<rect x="0" y="0" width="24" height="2" fill="#0A0033" opacity="0.7"/>
<rect x="0" y="22" width="24" height="2" fill="#0A0033" opacity="0.7"/>
</svg>