<svg viewBox="0 0 24 24" xmlns="http://www.w3.org/2000/svg">
<!-- Sickly sky -->
<rect x="0" y="0" width="24" height="24" fill="#3B3B2F"/>
<rect x="0" y="0" width="24" height="10" fill="#4B4B3F"/>
<rect x="0" y="0" width="24" height="5" fill="#5B5B4F"/>

<!-- Toxic clouds -->
<rect x="2" y="3" width="5" height="2" fill="#6B6B5F" opacity="0.8"/>
<rect x="3" y="2" width="3" height="1" fill="#7B7B6F" opacity="0.7"/>
<rect x="15" y="4" width="6" height="2" fill="#6B6B5F" opacity="0.8"/>
<rect x="16" y="3" width="4" height="1" fill="#7B7B6F" opacity="0.7"/>

<!-- Dead ground -->
<rect x="0" y="18" width="24" height="6" fill="#2F2F1F"/>
<rect x="0" y="20" width="24" height="4" fill="#1F1F0F"/>

<!-- Decay pools -->
<rect x="3" y="19" width="3" height="2" fill="#4F4F00"/>
<rect x="4" y="19" width="1" height="1" fill="#6F6F00"/>
<rect x="12" y="19" width="4" height="2" fill="#4F4F00"/>
<rect x="13" y="19" width="2" height="1" fill="#6F6F00"/>
<rect x="18" y="19" width="3" height="2" fill="#4F4F00"/>

<!-- Dead trees -->
<rect x="5" y="12" width="1" height="6" fill="#1F1F0F"/>
<rect x="4" y="14" width="3" height="1" fill="#1F1F0F"/>
<rect x="3" y="13" width="1" height="1" fill="#1F1F0F"/>
<rect x="6" y="15" width="1" height="1" fill="#1F1F0F"/>

<rect x="16" y="11" width="1" height="7" fill="#1F1F0F"/>
<rect x="15" y="13" width="3" height="1" fill="#1F1F0F"/>
<rect x="17" y="12" width="1" height="1" fill="#1F1F0F"/>

<!-- Toxic particles -->
<rect x="8" y="8" width="1" height="1" fill="#8FBC8F" opacity="0.6"/>
<rect x="14" y="10" width="1" height="1" fill="#8FBC8F" opacity="0.6"/>
<rect x="3" y="11" width="1" height="1" fill="#8FBC8F" opacity="0.6"/>
<rect x="19" y="9" width="1" height="1" fill="#8FBC8F" opacity="0.6"/>

<!-- Spores -->
<rect x="7" y="14" width="1" height="1" fill="#9ACD32" opacity="0.5"/>
<rect x="11" y="16" width="1" height="1" fill="#9ACD32" opacity="0.5"/>
<rect x="20" y="15" width="1" height="1" fill="#9ACD32" opacity="0.5"/>
</svg>