<svg viewBox="0 0 24 24" xmlns="http://www.w3.org/2000/svg">
<!-- Cold sky -->
<rect x="0" y="0" width="24" height="24" fill="#B0E0E6"/>
<rect x="0" y="0" width="24" height="12" fill="#87CEEB"/>
<rect x="0" y="0" width="24" height="6" fill="#4682B4"/>

<!-- Snow ground -->
<rect x="0" y="18" width="24" height="6" fill="#F0F8FF"/>
<rect x="0" y="20" width="24" height="4" fill="#FFFFFF"/>

<!-- Snow drifts -->
<rect x="0" y="17" width="8" height="1" fill="#F0F8FF"/>
<rect x="1" y="16" width="5" height="1" fill="#E6E6FA"/>
<rect x="12" y="17" width="10" height="1" fill="#F0F8FF"/>
<rect x="14" y="16" width="6" height="1" fill="#E6E6FA"/>

<!-- Ice crystals/snowflakes -->
<rect x="4" y="4" width="1" height="1" fill="#FFFFFF"/>
<rect x="3" y="5" width="3" height="1" fill="#FFFFFF"/>
<rect x="4" y="3" width="1" height="3" fill="#FFFFFF"/>

<rect x="16" y="8" width="1" height="1" fill="#FFFFFF"/>
<rect x="15" y="9" width="3" height="1" fill="#FFFFFF"/>
<rect x="16" y="7" width="1" height="3" fill="#FFFFFF"/>

<rect x="10" y="12" width="1" height="1" fill="#E6E6FA"/>
<rect x="9" y="13" width="3" height="1" fill="#E6E6FA"/>
<rect x="10" y="11" width="1" height="3" fill="#E6E6FA"/>

<!-- Falling snow -->
<rect x="2" y="10" width="1" height="1" fill="#FFFFFF" opacity="0.8"/>
<rect x="8" y="6" width="1" height="1" fill="#FFFFFF" opacity="0.8"/>
<rect x="14" y="11" width="1" height="1" fill="#FFFFFF" opacity="0.8"/>
<rect x="20" y="5" width="1" height="1" fill="#FFFFFF" opacity="0.8"/>
<rect x="18" y="14" width="1" height="1" fill="#FFFFFF" opacity="0.8"/>

<!-- Icicles -->
<rect x="6" y="0" width="1" height="3" fill="#B0E0E6"/>
<rect x="6" y="3" width="1" height="1" fill="#87CEEB"/>
<rect x="12" y="0" width="1" height="2" fill="#B0E0E6"/>
<rect x="19" y="0" width="1" height="3" fill="#B0E0E6"/>
<rect x="19" y="3" width="1" height="1" fill="#87CEEB"/>
</svg>