<svg viewBox="0 0 24 24" xmlns="http://www.w3.org/2000/svg">
<!-- Dark sky with fire glow -->
<rect x="0" y="0" width="24" height="24" fill="#1A0000"/>
<rect x="0" y="8" width="24" height="16" fill="#330000"/>
<rect x="0" y="12" width="24" height="12" fill="#4D0000"/>

<!-- Lava/ground -->
<rect x="0" y="20" width="24" height="4" fill="#8B0000"/>
<rect x="0" y="22" width="24" height="2" fill="#B22222"/>

<!-- Lava pools -->
<rect x="2" y="21" width="4" height="2" fill="#FF4500"/>
<rect x="3" y="21" width="2" height="1" fill="#FF6347"/>
<rect x="10" y="21" width="3" height="2" fill="#FF4500"/>
<rect x="18" y="21" width="4" height="2" fill="#FF4500"/>
<rect x="19" y="21" width="2" height="1" fill="#FF6347"/>

<!-- Fire pillars -->
<!-- Left fire -->
<rect x="4" y="16" width="3" height="4" fill="#FF0000"/>
<rect x="3" y="17" width="5" height="2" fill="#FF4500"/>
<rect x="4" y="15" width="3" height="1" fill="#FFA500"/>
<rect x="5" y="14" width="1" height="1" fill="#FFFF00"/>

<!-- Center fire -->
<rect x="11" y="17" width="2" height="3" fill="#FF0000"/>
<rect x="10" y="18" width="4" height="1" fill="#FF4500"/>
<rect x="11" y="16" width="2" height="1" fill="#FFA500"/>

<!-- Right fire -->
<rect x="17" y="15" width="3" height="5" fill="#FF0000"/>
<rect x="16" y="16" width="5" height="3" fill="#FF4500"/>
<rect x="17" y="14" width="3" height="1" fill="#FFA500"/>
<rect x="18" y="13" width="1" height="1" fill="#FFFF00"/>

<!-- Smoke/ash particles -->
<rect x="5" y="10" width="1" height="1" fill="#696969" opacity="0.7"/>
<rect x="12" y="8" width="1" height="1" fill="#696969" opacity="0.7"/>
<rect x="18" y="9" width="1" height="1" fill="#696969" opacity="0.7"/>
<rect x="3" y="6" width="1" height="1" fill="#808080" opacity="0.5"/>
<rect x="20" y="7" width="1" height="1" fill="#808080" opacity="0.5"/>

<!-- Embers -->
<rect x="6" y="12" width="1" height="1" fill="#FF6347" opacity="0.8"/>
<rect x="15" y="11" width="1" height="1" fill="#FF6347" opacity="0.8"/>
<rect x="9" y="14" width="1" height="1" fill="#FFA500" opacity="0.8"/>
</svg>