<svg viewBox="0 0 24 24" xmlns="http://www.w3.org/2000/svg">',
            // Apocalyptic sky
            '<rect x="0" y="0" width="24" height="24" fill="#2F0F0F"/>',
            '<rect x="0" y="0" width="24" height="8" fill="#4F1F1F"/>',
            '<rect x="0" y="0" width="24" height="4" fill="#6F2F2F"/>',
            
            // Lightning/cracks in sky
            '<rect x="8" y="0" width="1" height="6" fill="#FFD700"/>',
            '<rect x="7" y="2" width="3" height="1" fill="#FFA500"/>',
            '<rect x="8" y="4" width="2" height="1" fill="#FFA500"/>',
            '<rect x="9" y="6" width="1" height="3" fill="#FFD700"/>',
            
            '<rect x="16" y="0" width="1" height="4" fill="#FFD700"/>',
            '<rect x="15" y="3" width="3" height="1" fill="#FFA500"/>',
            '<rect x="17" y="4" width="1" height="2" fill="#FFD700"/>',
            
            // Burning ground
            '<rect x="0" y="18" width="24" height="6" fill="#3F1F1F"/>',
            '<rect x="0" y="20" width="24" height="4" fill="#2F0F0F"/>',
            
            // Fire and destruction
            '<rect x="2" y="16" width="3" height="2" fill="#FF4500"/>',
            '<rect x="3" y="15" width="1" height="1" fill="#FF6347"/>',
            '<rect x="2" y="17" width="3" height="1" fill="#FF0000"/>',
            
            '<rect x="9" y="17" width="4" height="1" fill="#FF4500"/>',
            '<rect x="10" y="16" width="2" height="1" fill="#FF6347"/>',
            '<rect x="10" y="15" width="2" height="1" fill="#FFA500"/>',
            
            '<rect x="18" y="16" width="3" height="2" fill="#FF4500"/>',
            '<rect x="19" y="15" width="1" height="1" fill="#FF6347"/>',
            '<rect x="18" y="17" width="3" height="1" fill="#FF0000"/>',
            
            // Falling meteors
            '<rect x="4" y="8" width="2" height="2" fill="#FF4500"/>',
            '<rect x="5" y="7" width="1" height="1" fill="#FF6347"/>',
            '<rect x="3" y="9" width="1" height="1" fill="#FFA500"/>',
            
            '<rect x="14" y="10" width="2" height="2" fill="#FF4500"/>',
            '<rect x="15" y="9" width="1" height="1" fill="#FF6347"/>',
            '<rect x="13" y="11" width="1" height="1" fill="#FFA500"/>',
            
            // Ash and smoke
            '<rect x="1" y="12" width="1" height="1" fill="#696969" opacity="0.7"/>',
            '<rect x="7" y="10" width="1" height="1" fill="#696969" opacity="0.7"/>',
            '<rect x="11" y="13" width="1" height="1" fill="#696969" opacity="0.7"/>',
            '<rect x="17" y="11" width="1" height="1" fill="#696969" opacity="0.7"/>',
            '<rect x="21" y="14" width="1" height="1" fill="#696969" opacity="0.7"/>',
            
            // Ruins/debris
            '<rect x="6" y="18" width="2" height="2" fill="#4F4F4F"/>',
            '<rect x="7" y="17" width="1" height="1" fill="#5F5F5F"/>',
            '<rect x="15" y="18" width="3" height="2" fill="#4F4F4F"/>',
            '<rect x="16" y="17" width="1" height="1" fill="#5F5F5F"/>',
            '</svg>