<svg viewBox="0 0 24 24" xmlns="http://www.w3.org/2000/svg">',
            // Dark gradient sky
            '<rect x="0" y="0" width="24" height="24" fill="#0A0A0A"/>',
            '<rect x="0" y="8" width="24" height="16" fill="#141414"/>',
            '<rect x="0" y="16" width="24" height="8" fill="#1E1E1E"/>',
            
            // Shadow wisps/tendrils
            '<rect x="3" y="4" width="1" height="6" fill="#000000" opacity="0.8"/>',
            '<rect x="2" y="6" width="3" height="1" fill="#000000" opacity="0.8"/>',
            '<rect x="4" y="8" width="2" height="1" fill="#000000" opacity="0.8"/>',
            
            '<rect x="10" y="2" width="1" height="8" fill="#000000" opacity="0.8"/>',
            '<rect x="9" y="5" width="3" height="1" fill="#000000" opacity="0.8"/>',
            '<rect x="11" y="7" width="2" height="1" fill="#000000" opacity="0.8"/>',
            
            '<rect x="17" y="3" width="1" height="7" fill="#000000" opacity="0.8"/>',
            '<rect x="16" y="4" width="3" height="1" fill="#000000" opacity="0.8"/>',
            '<rect x="18" y="6" width="2" height="1" fill="#000000" opacity="0.8"/>',
            
            // Shadow ground
            '<rect x="0" y="20" width="24" height="4" fill="#000000"/>',
            
            // Shadow creatures/forms
            '<rect x="4" y="16" width="3" height="4" fill="#000000"/>',
            '<rect x="3" y="17" width="5" height="2" fill="#0A0A0A"/>',
            '<rect x="5" y="15" width="1" height="1" fill="#000000"/>',
            
            '<rect x="12" y="15" width="4" height="5" fill="#000000"/>',
            '<rect x="11" y="16" width="6" height="3" fill="#0A0A0A"/>',
            '<rect x="13" y="14" width="2" height="1" fill="#000000"/>',
            
            '<rect x="19" y="17" width="2" height="3" fill="#000000"/>',
            '<rect x="18" y="18" width="4" height="1" fill="#0A0A0A"/>',
            
            // Glowing eyes
            '<rect x="4" y="17" width="1" height="1" fill="#8B0000" opacity="0.9"/>',
            '<rect x="6" y="17" width="1" height="1" fill="#8B0000" opacity="0.9"/>',
            
            '<rect x="13" y="16" width="1" height="1" fill="#8B0000" opacity="0.9"/>',
            '<rect x="15" y="16" width="1" height="1" fill="#8B0000" opacity="0.9"/>',
            
            '<rect x="19" y="18" width="1" height="1" fill="#8B0000" opacity="0.9"/>',
            
            // Shadow particles
            '<rect x="1" y="9" width="1" height="1" fill="#2F2F2F" opacity="0.6"/>',
            '<rect x="7" y="11" width="1" height="1" fill="#2F2F2F" opacity="0.6"/>',
            '<rect x="14" y="8" width="1" height="1" fill="#2F2F2F" opacity="0.6"/>',
            '<rect x="21" y="10" width="1" height="1" fill="#2F2F2F" opacity="0.6"/>',
            
            // Dark moon
            '<rect x="18" y="2" width="4" height="4" fill="#1E1E1E"/>',
            '<rect x="19" y="3" width="2" height="2" fill="#282828"/>',
            '</svg>