<svg viewBox="0 0 24 24" xmlns="http://www.w3.org/2000/svg">',
            // Poisonous atmosphere
            '<rect x="0" y="0" width="24" height="24" fill="#0F1F0F"/>',
            '<rect x="0" y="6" width="24" height="18" fill="#1F2F1F"/>',
            '<rect x="0" y="12" width="24" height="12" fill="#2F3F2F"/>',
            
            // Toxic fog layers
            '<rect x="0" y="8" width="24" height="2" fill="#00FF00" opacity="0.1"/>',
            '<rect x="0" y="14" width="24" height="2" fill="#00FF00" opacity="0.15"/>',
            
            // Venom ground
            '<rect x="0" y="20" width="24" height="4" fill="#003300"/>',
            '<rect x="0" y="22" width="24" height="2" fill="#002200"/>',
            
            // Poison bubbles/pools
            '<rect x="2" y="21" width="3" height="2" fill="#00FF00"/>',
            '<rect x="3" y="20" width="1" height="1" fill="#32CD32"/>',
            '<rect x="2" y="20" width="1" height="1" fill="#00FF00" opacity="0.7"/>',
            '<rect x="4" y="20" width="1" height="1" fill="#00FF00" opacity="0.7"/>',
            
            '<rect x="14" y="21" width="4" height="2" fill="#00FF00"/>',
            '<rect x="15" y="20" width="2" height="1" fill="#32CD32"/>',
            '<rect x="14" y="20" width="1" height="1" fill="#00FF00" opacity="0.7"/>',
            '<rect x="17" y="20" width="1" height="1" fill="#00FF00" opacity="0.7"/>',
            
            // Toxic drips
            '<rect x="6" y="10" width="1" height="3" fill="#00FF00" opacity="0.8"/>',
            '<rect x="6" y="13" width="1" height="1" fill="#32CD32"/>',
            
            '<rect x="12" y="8" width="1" height="4" fill="#00FF00" opacity="0.8"/>',
            '<rect x="12" y="12" width="1" height="1" fill="#32CD32"/>',
            
            '<rect x="18" y="11" width="1" height="2" fill="#00FF00" opacity="0.8"/>',
            '<rect x="18" y="13" width="1" height="1" fill="#32CD32"/>',
            
            // Poison gas particles
            '<rect x="3" y="6" width="1" height="1" fill="#00FF00" opacity="0.4"/>',
            '<rect x="9" y="5" width="1" height="1" fill="#00FF00" opacity="0.4"/>',
            '<rect x="15" y="7" width="1" height="1" fill="#00FF00" opacity="0.4"/>',
            '<rect x="20" y="6" width="1" height="1" fill="#00FF00" opacity="0.4"/>',
            
            // Toxic crystals
            '<rect x="8" y="18" width="1" height="2" fill="#00FF00"/>',
            '<rect x="7" y="19" width="3" height="1" fill="#228B22"/>',
            '<rect x="8" y="17" width="1" height="1" fill="#32CD32"/>',
            
            '<rect x="19" y="17" width="1" height="3" fill="#00FF00"/>',
            '<rect x="18" y="18" width="3" height="1" fill="#228B22"/>',
            '<rect x="19" y="16" width="1" height="1" fill="#32CD32"/>',
            '</svg>