<svg viewBox="0 0 24 24" xmlns="http://www.w3.org/2000/svg">',
            // Base void
            '<rect x="0" y="0" width="24" height="24" fill="#000000"/>',
            
            // Void rifts/tears
            '<rect x="5" y="0" width="2" height="8" fill="#0F0F1F"/>',
            '<rect x="5" y="8" width="2" height="4" fill="#1F1F3F"/>',
            '<rect x="5" y="12" width="2" height="2" fill="#2F2F5F"/>',
            
            '<rect x="12" y="3" width="3" height="12" fill="#0F0F1F"/>',
            '<rect x="12" y="15" width="3" height="4" fill="#1F1F3F"/>',
            '<rect x="12" y="19" width="3" height="2" fill="#2F2F5F"/>',
            
            '<rect x="18" y="6" width="2" height="10" fill="#0F0F1F"/>',
            '<rect x="18" y="16" width="2" height="4" fill="#1F1F3F"/>',
            
            // Void particles/stars
            '<rect x="2" y="4" width="1" height="1" fill="#4169E1" opacity="0.8"/>',
            '<rect x="9" y="2" width="1" height="1" fill="#4169E1" opacity="0.8"/>',
            '<rect x="17" y="3" width="1" height="1" fill="#4169E1" opacity="0.8"/>',
            '<rect x="22" y="5" width="1" height="1" fill="#4169E1" opacity="0.8"/>',
            
            '<rect x="3" y="15" width="1" height="1" fill="#6495ED" opacity="0.6"/>',
            '<rect x="8" y="18" width="1" height="1" fill="#6495ED" opacity="0.6"/>',
            '<rect x="16" y="20" width="1" height="1" fill="#6495ED" opacity="0.6"/>',
            '<rect x="20" y="17" width="1" height="1" fill="#6495ED" opacity="0.6"/>',
            
            // Void energy wisps
            '<rect x="6" y="6" width="1" height="1" fill="#191970"/>',
            '<rect x="13" y="10" width="1" height="1" fill="#191970"/>',
            '<rect x="19" y="12" width="1" height="1" fill="#191970"/>',
            
            // Bottom void distortion
            '<rect x="0" y="20" width="24" height="4" fill="#0A0A1A"/>',
            '<rect x="0" y="22" width="24" height="2" fill="#05050F"/>',
            
            // Floating debris
            '<rect x="4" y="16" width="2" height="1" fill="#1F1F3F"/>',
            '<rect x="10" y="17" width="3" height="1" fill="#1F1F3F"/>',
            '<rect x="17" y="18" width="2" height="1" fill="#1F1F3F"/>',
            
            // Void holes
            '<rect x="8" y="8" width="3" height="3" fill="#000000"/>',
            '<rect x="7" y="9" width="5" height="1" fill="#000000"/>',
            '<rect x="9" y="7" width="1" height="5" fill="#000000"/>',
            
            '<rect x="15" y="13" width="2" height="2" fill="#000000"/>',
            '</svg>