<svg viewBox="0 0 24 24" xmlns="http://www.w3.org/2000/svg">
  <!-- ドラゴンモンスター -->
  <!-- 角 -->
  <rect x="6" y="1" width="2" height="3" fill="#8B0000"/>
  <rect x="16" y="1" width="2" height="3" fill="#8B0000"/>
  <rect x="7" y="2" width="1" height="2" fill="#DC143C"/>
  <rect x="16" y="2" width="1" height="2" fill="#DC143C"/>
  <!-- 背びれ -->
  <rect x="11" y="2" width="2" height="2" fill="#8B0000"/>
  <rect x="10" y="3" width="4" height="1" fill="#8B0000"/>
  <!-- 頭部 -->
  <rect x="7" y="4" width="10" height="2" fill="#2F2F2F"/>
  <rect x="5" y="6" width="14" height="4" fill="#2F2F2F"/>
  <!-- 目 -->
  <rect x="7" y="7" width="3" height="2" fill="#FF4500"/>
  <rect x="14" y="7" width="3" height="2" fill="#FF4500"/>
  <rect x="8" y="7" width="1" height="1" fill="#FFD700"/>
  <rect x="15" y="7" width="1" height="1" fill="#FFD700"/>
  <!-- 鼻と煙 -->
  <rect x="4" y="8" width="4" height="2" fill="#2F2F2F"/>
  <rect x="5" y="9" width="2" height="1" fill="#1C1C1C"/>
  <rect x="2" y="7" width="2" height="1" fill="#FF4500"/>
  <rect x="1" y="6" width="2" height="1" fill="#FFA500"/>
  <rect x="2" y="8" width="1" height="1" fill="#FFD700"/>
  <!-- 首 -->
  <rect x="8" y="10" width="8" height="2" fill="#2F2F2F"/>
  <!-- 体 -->
  <rect x="6" y="12" width="12" height="4" fill="#2F2F2F"/>
  <rect x="7" y="16" width="10" height="3" fill="#2F2F2F"/>
  <!-- 鱗の模様 -->
  <rect x="8" y="13" width="2" height="1" fill="#4A4A4A"/>
  <rect x="12" y="13" width="2" height="1" fill="#4A4A4A"/>
  <rect x="10" y="14" width="2" height="1" fill="#4A4A4A"/>
  <rect x="14" y="14" width="2" height="1" fill="#4A4A4A"/>
  <rect x="9" y="15" width="2" height="1" fill="#4A4A4A"/>
  <rect x="13" y="15" width="2" height="1" fill="#4A4A4A"/>
  <!-- 翼 -->
  <rect x="2" y="11" width="4" height="2" fill="#8B0000"/>
  <rect x="18" y="11" width="4" height="2" fill="#8B0000"/>
  <rect x="1" y="12" width="3" height="4" fill="#8B0000"/>
  <rect x="20" y="12" width="3" height="4" fill="#8B0000"/>
  <rect x="0" y="13" width="2" height="2" fill="#DC143C"/>
  <rect x="22" y="13" width="2" height="2" fill="#DC143C"/>
  <!-- 背骨のスパイク -->
  <rect x="9" y="11" width="1" height="2" fill="#8B0000"/>
  <rect x="12" y="11" width="1" height="2" fill="#8B0000"/>
  <rect x="15" y="11" width="1" height="2" fill="#8B0000"/>
  <!-- 脚と爪 -->
  <rect x="7" y="19" width="3" height="2" fill="#2F2F2F"/>
  <rect x="14" y="19" width="3" height="2" fill="#2F2F2F"/>
  <rect x="6" y="21" width="1" height="2" fill="#D3D3D3"/>
  <rect x="7" y="21" width="1" height="2" fill="#D3D3D3"/>
  <rect x="8" y="21" width="1" height="2" fill="#D3D3D3"/>
  <rect x="9" y="21" width="1" height="2" fill="#D3D3D3"/>
  <rect x="14" y="21" width="1" height="2" fill="#D3D3D3"/>
  <rect x="15" y="21" width="1" height="2" fill="#D3D3D3"/>
  <rect x="16" y="21" width="1" height="2" fill="#D3D3D3"/>
  <rect x="17" y="21" width="1" height="2" fill="#D3D3D3"/>
  <!-- 尻尾 -->
  <rect x="17" y="17" width="3" height="2" fill="#2F2F2F"/>
  <rect x="19" y="18" width="2" height="2" fill="#2F2F2F"/>
  <rect x="20" y="19" width="2" height="1" fill="#2F2F2F"/>
  <rect x="21" y="19" width="1" height="1" fill="#8B0000"/>
</svg>