<svg viewBox="0 0 24 24" xmlns="http://www.w3.org/2000/svg">
  <!-- フランケンシュタインモンスター -->
  <!-- 髪 -->
  <rect x="7" y="0" width="10" height="2" fill="#1C1C1C"/>
  <rect x="6" y="1" width="12" height="1" fill="#1C1C1C"/>
  <!-- 頭（四角い） -->
  <rect x="6" y="2" width="12" height="2" fill="#708090"/>
  <rect x="6" y="4" width="12" height="6" fill="#708090"/>
  <rect x="6" y="10" width="12" height="2" fill="#708090"/>
  <rect x="7" y="11" width="10" height="1" fill="#708090"/>
  <!-- ボルト（首） -->
  <rect x="4" y="7" width="2" height="2" fill="#C0C0C0"/>
  <rect x="18" y="7" width="2" height="2" fill="#C0C0C0"/>
  <rect x="3" y="7" width="1" height="2" fill="#808080"/>
  <rect x="20" y="7" width="1" height="2" fill="#808080"/>
  <!-- 傷跡（額） -->
  <rect x="8" y="3" width="3" height="1" fill="#2F2F2F"/>
  <rect x="12" y="3" width="3" height="1" fill="#2F2F2F"/>
  <rect x="11" y="2" width="1" height="2" fill="#2F2F2F"/>
  <!-- 目 -->
  <rect x="7" y="6" width="3" height="2" fill="#1C1C1C"/>
  <rect x="14" y="6" width="3" height="2" fill="#1C1C1C"/>
  <rect x="8" y="6" width="1" height="1" fill="#F5F5DC"/>
  <rect x="15" y="6" width="1" height="1" fill="#F5F5DC"/>
  <!-- 鼻 -->
  <rect x="11" y="8" width="2" height="1" fill="#2F2F2F"/>
  <!-- 口（縫い目） -->
  <rect x="9" y="10" width="6" height="1" fill="#1C1C1C"/>
  <rect x="8" y="9" width="1" height="1" fill="#2F2F2F"/>
  <rect x="10" y="9" width="1" height="1" fill="#2F2F2F"/>
  <rect x="12" y="9" width="1" height="1" fill="#2F2F2F"/>
  <rect x="14" y="9" width="1" height="1" fill="#2F2F2F"/>
  <rect x="15" y="9" width="1" height="1" fill="#2F2F2F"/>
  <!-- 首 -->
  <rect x="8" y="12" width="8" height="2" fill="#708090"/>
  <!-- 縫い目（首） -->
  <rect x="10" y="12" width="1" height="1" fill="#2F2F2F"/>
  <rect x="13" y="13" width="1" height="1" fill="#2F2F2F"/>
  <!-- 体（黒いジャケット） -->
  <rect x="6" y="14" width="12" height="4" fill="#1C1C1C"/>
  <rect x="7" y="18" width="10" height="2" fill="#1C1C1C"/>
  <!-- ジャケットの襟 -->
  <rect x="7" y="14" width="3" height="2" fill="#2F2F2F"/>
  <rect x="14" y="14" width="3" height="2" fill="#2F2F2F"/>
  <!-- 赤いシャツ（チラ見せ） -->
  <rect x="10" y="14" width="4" height="3" fill="#B22222"/>
  <rect x="11" y="17" width="2" height="1" fill="#B22222"/>
  <!-- 腕（ジャケットの袖） -->
  <rect x="3" y="14" width="3" height="2" fill="#1C1C1C"/>
  <rect x="18" y="14" width="3" height="2" fill="#1C1C1C"/>
  <rect x="2" y="16" width="3" height="3" fill="#1C1C1C"/>
  <rect x="19" y="16" width="3" height="3" fill="#1C1C1C"/>
  <!-- 手首から手 -->
  <rect x="2" y="19" width="3" height="1" fill="#708090"/>
  <rect x="19" y="19" width="3" height="1" fill="#708090"/>
  <!-- 縫い目（腕） -->
  <rect x="3" y="17" width="1" height="1" fill="#2F2F2F"/>
  <rect x="20" y="17" width="1" height="1" fill="#2F2F2F"/>
  <!-- 手 -->
  <rect x="2" y="20" width="3" height="2" fill="#708090"/>
  <rect x="19" y="20" width="3" height="2" fill="#708090"/>
  <!-- ジーンズ -->
  <rect x="8" y="20" width="3" height="2" fill="#4682B4"/>
  <rect x="13" y="20" width="3" height="2" fill="#4682B4"/>
  <!-- ジーンズのステッチ -->
  <rect x="11" y="20" width="1" height="2" fill="#191970"/>
  <rect x="12" y="20" width="1" height="2" fill="#191970"/>
  <!-- 靴 -->
  <rect x="8" y="22" width="3" height="1" fill="#2F2F2F"/>
  <rect x="13" y="22" width="3" height="1" fill="#2F2F2F"/>
</svg>