<svg viewBox="0 0 24 24" xmlns="http://www.w3.org/2000/svg">
  <!-- ゴブリンモンスター -->
  <!-- 尖った耳 -->
  <rect x="3" y="5" width="2" height="2" fill="#2F4F2F"/>
  <rect x="4" y="6" width="2" height="3" fill="#2F4F2F"/>
  <rect x="5" y="7" width="1" height="2" fill="#3CB371"/>
  <rect x="19" y="5" width="2" height="2" fill="#2F4F2F"/>
  <rect x="18" y="6" width="2" height="3" fill="#2F4F2F"/>
  <rect x="18" y="7" width="1" height="2" fill="#3CB371"/>
  <!-- 頭部 -->
  <rect x="6" y="4" width="12" height="2" fill="#2F4F2F"/>
  <rect x="5" y="6" width="14" height="3" fill="#2F4F2F"/>
  <rect x="6" y="9" width="12" height="3" fill="#2F4F2F"/>
  <!-- 目 -->
  <rect x="8" y="7" width="3" height="2" fill="#DC143C"/>
  <rect x="13" y="7" width="3" height="2" fill="#DC143C"/>
  <rect x="9" y="7" width="1" height="1" fill="#FFA500"/>
  <rect x="14" y="7" width="1" height="1" fill="#FFA500"/>
  <!-- 鼻 -->
  <rect x="11" y="9" width="2" height="2" fill="#1C1C1C"/>
  <rect x="10" y="10" width="1" height="1" fill="#1C1C1C"/>
  <rect x="13" y="10" width="1" height="1" fill="#1C1C1C"/>
  <!-- 口と牙 -->
  <rect x="9" y="11" width="6" height="1" fill="#1C1C1C"/>
  <rect x="8" y="12" width="8" height="1" fill="#2F4F2F"/>
  <rect x="9" y="11" width="1" height="2" fill="#F5F5F5"/>
  <rect x="11" y="11" width="1" height="2" fill="#F5F5F5"/>
  <rect x="13" y="11" width="1" height="2" fill="#F5F5F5"/>
  <rect x="14" y="11" width="1" height="2" fill="#F5F5F5"/>
  <!-- 首 -->
  <rect x="10" y="13" width="4" height="1" fill="#2F4F2F"/>
  <!-- 体 -->
  <rect x="7" y="14" width="10" height="4" fill="#2F4F2F"/>
  <rect x="8" y="18" width="8" height="2" fill="#2F4F2F"/>
  <!-- 筋肉と傷跡 -->
  <rect x="9" y="15" width="6" height="1" fill="#3CB371"/>
  <rect x="10" y="17" width="4" height="1" fill="#3CB371"/>
  <rect x="12" y="16" width="3" height="1" fill="#1C1C1C"/>
  <!-- 腕 -->
  <rect x="4" y="14" width="3" height="2" fill="#2F4F2F"/>
  <rect x="17" y="14" width="3" height="2" fill="#2F4F2F"/>
  <rect x="3" y="16" width="3" height="3" fill="#2F4F2F"/>
  <rect x="18" y="16" width="3" height="3" fill="#2F4F2F"/>
  <!-- 爪 -->
  <rect x="2" y="18" width="1" height="2" fill="#D3D3D3"/>
  <rect x="3" y="19" width="1" height="2" fill="#D3D3D3"/>
  <rect x="4" y="19" width="1" height="2" fill="#D3D3D3"/>
  <rect x="19" y="19" width="1" height="2" fill="#D3D3D3"/>
  <rect x="20" y="19" width="1" height="2" fill="#D3D3D3"/>
  <rect x="21" y="18" width="1" height="2" fill="#D3D3D3"/>
  <!-- 足 -->
  <rect x="8" y="20" width="3" height="2" fill="#2F4F2F"/>
  <rect x="13" y="20" width="3" height="2" fill="#2F4F2F"/>
  <rect x="8" y="22" width="3" height="1" fill="#1C1C1C"/>
  <rect x="13" y="22" width="3" height="1" fill="#1C1C1C"/>
</svg>