<svg viewBox="0 0 24 24" xmlns="http://www.w3.org/2000/svg">
  <!-- Mummy Monster -->
  <!-- Head with bandages -->
  <rect x="7" y="3" width="10" height="9" fill="#F5DEB3"/>
  <rect x="6" y="4" width="1" height="7" fill="#F5DEB3"/>
  <rect x="17" y="4" width="1" height="7" fill="#F5DEB3"/>
  
  <!-- Bandage lines on head -->
  <rect x="7" y="5" width="10" height="1" fill="#D2B48C"/>
  <rect x="7" y="8" width="10" height="1" fill="#D2B48C"/>
  <rect x="7" y="11" width="10" height="1" fill="#D2B48C"/>
  
  <!-- Eyes -->
  <rect x="9" y="6" width="2" height="2" fill="#000000"/>
  <rect x="13" y="6" width="2" height="2" fill="#000000"/>
  
  <!-- Body with bandages -->
  <rect x="6" y="12" width="12" height="8" fill="#F5DEB3"/>
  <rect x="5" y="13" width="1" height="6" fill="#F5DEB3"/>
  <rect x="18" y="13" width="1" height="6" fill="#F5DEB3"/>
  
  <!-- Bandage lines on body -->
  <rect x="6" y="14" width="12" height="1" fill="#D2B48C"/>
  <rect x="6" y="17" width="12" height="1" fill="#D2B48C"/>
  
  <!-- Arms wrapped in bandages -->
  <rect x="3" y="13" width="2" height="5" fill="#F5DEB3"/>
  <rect x="19" y="13" width="2" height="5" fill="#F5DEB3"/>
  <rect x="3" y="15" width="2" height="1" fill="#D2B48C"/>
  <rect x="19" y="15" width="2" height="1" fill="#D2B48C"/>
  
  <!-- Loose bandage pieces -->
  <rect x="2" y="14" width="1" height="2" fill="#F5DEB3"/>
  <rect x="21" y="16" width="1" height="2" fill="#F5DEB3"/>
  
  <!-- Legs -->
  <rect x="7" y="20" width="3" height="2" fill="#F5DEB3"/>
  <rect x="14" y="20" width="3" height="2" fill="#F5DEB3"/>
  <rect x="8" y="22" width="2" height="1" fill="#F5DEB3"/>
  <rect x="15" y="22" width="2" height="1" fill="#F5DEB3"/>
  
  <!-- Bandage lines on legs -->
  <rect x="7" y="21" width="3" height="1" fill="#D2B48C"/>
  <rect x="14" y="21" width="3" height="1" fill="#D2B48C"/>
</svg>