<svg viewBox="0 0 24 24" xmlns="http://www.w3.org/2000/svg">
  <!-- スケルトンモンスター -->
  <!-- 頭蓋骨 -->
  <rect x="8" y="2" width="8" height="2" fill="#E8E8E8"/>
  <rect x="7" y="4" width="10" height="3" fill="#E8E8E8"/>
  <rect x="6" y="6" width="12" height="3" fill="#E8E8E8"/>
  <rect x="7" y="9" width="10" height="2" fill="#E8E8E8"/>
  
  <!-- 眼窩 -->
  <rect x="8" y="5" width="3" height="3" fill="#1C1C1C"/>
  <rect x="13" y="5" width="3" height="3" fill="#1C1C1C"/>
  <rect x="9" y="6" width="1" height="1" fill="#FF6B6B"/>
  <rect x="14" y="6" width="1" height="1" fill="#FF6B6B"/>
  
  <!-- 鼻腔 -->
  <rect x="11" y="7" width="2" height="2" fill="#1C1C1C"/>
  
  <!-- 顎と歯 -->
  <rect x="8" y="10" width="8" height="1" fill="#D3D3D3"/>
  <rect x="8" y="9" width="1" height="2" fill="#F5F5F5"/>
  <rect x="10" y="9" width="1" height="2" fill="#F5F5F5"/>
  <rect x="12" y="9" width="1" height="2" fill="#F5F5F5"/>
  <rect x="14" y="9" width="1" height="2" fill="#F5F5F5"/>
  <rect x="15" y="9" width="1" height="2" fill="#F5F5F5"/>
  
  <!-- 首の骨 -->
  <rect x="11" y="11" width="2" height="2" fill="#E8E8E8"/>
  
  <!-- 肋骨 -->
  <rect x="7" y="13" width="10" height="1" fill="#E8E8E8"/>
  <rect x="6" y="14" width="12" height="1" fill="#D3D3D3"/>
  <rect x="7" y="15" width="10" height="1" fill="#E8E8E8"/>
  <rect x="8" y="16" width="8" height="1" fill="#D3D3D3"/>
  <rect x="9" y="17" width="6" height="1" fill="#E8E8E8"/>
  
  <!-- 背骨 -->
  <rect x="11" y="13" width="2" height="6" fill="#F5F5F5"/>
  
  <!-- 肩甲骨と腕 -->
  <rect x="4" y="13" width="3" height="2" fill="#E8E8E8"/>
  <rect x="17" y="13" width="3" height="2" fill="#E8E8E8"/>
  <rect x="3" y="15" width="2" height="4" fill="#D3D3D3"/>
  <rect x="19" y="15" width="2" height="4" fill="#D3D3D3"/>
  <!-- 手の骨 -->
  <rect x="2" y="18" width="3" height="1" fill="#E8E8E8"/>
  <rect x="19" y="18" width="3" height="1" fill="#E8E8E8"/>
  <rect x="2" y="19" width="1" height="2" fill="#D3D3D3"/>
  <rect x="3" y="19" width="1" height="2" fill="#D3D3D3"/>
  <rect x="4" y="19" width="1" height="2" fill="#D3D3D3"/>
  <rect x="19" y="19" width="1" height="2" fill="#D3D3D3"/>
  <rect x="20" y="19" width="1" height="2" fill="#D3D3D3"/>
  <rect x="21" y="19" width="1" height="2" fill="#D3D3D3"/>
  
  <!-- 骨盤 -->
  <rect x="8" y="18" width="8" height="2" fill="#E8E8E8"/>
  <rect x="9" y="19" width="6" height="1" fill="#D3D3D3"/>
  
  <!-- 脚の骨 -->
  <rect x="9" y="20" width="2" height="2" fill="#E8E8E8"/>
  <rect x="13" y="20" width="2" height="2" fill="#E8E8E8"/>
  <rect x="9" y="22" width="2" height="1" fill="#D3D3D3"/>
  <rect x="13" y="22" width="2" height="1" fill="#D3D3D3"/>
</svg>