<svg width="384" height="384" viewBox="0 0 24 24" xmlns="http://www.w3.org/2000/svg" shape-rendering="crispEdges"><rect x="8" y="2" width="1" height="1" fill="#8B0000"/><rect x="15" y="2" width="1" height="1" fill="#8B0000"/><rect x="8" y="8" width="1" height="2" fill="#8B0000"/><rect x="10" y="8" width="1" height="2" fill="#8B0000"/><rect x="13" y="8" width="1" height="2" fill="#8B0000"/><rect x="15" y="8" width="1" height="2" fill="#8B0000"/><rect x="9" y="14" width="5" height="3" fill="#8B0000"/><rect x="8" y="15" width="1" height="2" fill="#8B0000"/><rect x="14" y="15" width="1" height="2" fill="#8B0000"/><rect x="13" y="17" width="1" height="1" fill="#8B0000"/><rect x="16" y="17" width="1" height="1" fill="#8B0000"/><rect x="9" y="18" width="4" height="1" fill="#8B0000"/><rect x="7" y="3" width="2" height="1" fill="#DC143C"/><rect x="15" y="3" width="2" height="1" fill="#DC143C"/><rect x="9" y="9" width="1" height="1" fill="#DC143C"/><rect x="10" y="11" width="2" height="1" fill="#DC143C"/><rect x="13" y="11" width="1" height="1" fill="#DC143C"/><rect x="19" y="18" width="1" height="1" fill="#DC143C"/><rect x="6" y="4" width="12" height="2" fill="#4B0082"/><rect x="5" y="5" width="1" height="9" fill="#4B0082"/><rect x="18" y="5" width="1" height="8" fill="#4B0082"/><rect x="6" y="6" width="1" height="1" fill="#4B0082"/><rect x="8" y="6" width="1" height="1" fill="#4B0082"/><rect x="10" y="6" width="1" height="1" fill="#4B0082"/><rect x="12" y="6" width="1" height="1" fill="#4B0082"/><rect x="14" y="6" width="1" height="1" fill="#4B0082"/><rect x="16" y="6" width="2" height="1" fill="#4B0082"/><rect x="4" y="7" width="1" height="6" fill="#4B0082"/><rect x="17" y="7" width="1" height="1" fill="#4B0082"/><rect x="19" y="7" width="1" height="6" fill="#4B0082"/><rect x="6" y="12" width="1" height="3" fill="#4B0082"/><rect x="17" y="12" width="1" height="3" fill="#4B0082"/><rect x="7" y="13" width="3" height="1" fill="#4B0082"/><rect x="15" y="13" width="2" height="2" fill="#4B0082"/><rect x="7" y="14" width="2" height="1" fill="#4B0082"/><rect x="14" y="14" width="1" height="1" fill="#4B0082"/><rect x="17" y="16" width="1" height="2" fill="#4B0082"/><rect x="7" y="6" width="1" height="7" fill="#FFE4E1"/><rect x="9" y="6" width="1" height="2" fill="#FFE4E1"/><rect x="11" y="6" width="1" height="4" fill="#FFE4E1"/><rect x="13" y="6" width="1" height="2" fill="#FFE4E1"/><rect x="15" y="6" width="1" height="2" fill="#FFE4E1"/><rect x="6" y="7" width="1" height="5" fill="#FFE4E1"/><rect x="8" y="7" width="1" height="1" fill="#FFE4E1"/><rect x="10" y="7" width="1" height="1" fill="#FFE4E1"/><rect x="12" y="7" width="1" height="3" fill="#FFE4E1"/><rect x="14" y="7" width="1" height="1" fill="#FFE4E1"/><rect x="16" y="7" width="1" height="5" fill="#FFE4E1"/><rect x="8" y="10" width="3" height="1" fill="#FFE4E1"/><rect x="13" y="10" width="3" height="1" fill="#FFE4E1"/><rect x="8" y="11" width="2" height="2" fill="#FFE4E1"/><rect x="14" y="11" width="2" height="1" fill="#FFE4E1"/><rect x="10" y="12" width="5" height="1" fill="#FFE4E1"/><rect x="10" y="13" width="3" height="1" fill="#FFE4E1"/><rect x="6" y="15" width="2" height="3" fill="#FFE4E1"/><rect x="15" y="15" width="2" height="2" fill="#FFE4E1"/><rect x="8" y="17" width="1" height="5" fill="#FFE4E1"/><rect x="14" y="17" width="2" height="2" fill="#FFE4E1"/><rect x="7" y="18" width="1" height="1" fill="#FFE4E1"/><rect x="9" y="19" width="1" height="4" fill="#FFE4E1"/><rect x="13" y="19" width="2" height="1" fill="#FFE4E1"/><rect x="16" y="19" width="2" height="2" fill="#FFE4E1"/><rect x="13" y="20" width="1" height="3" fill="#FFE4E1"/><rect x="15" y="21" width="2" height="1" fill="#FFE4E1"/><rect x="9" y="8" width="1" height="1" fill="#FFF"/><rect x="14" y="8" width="1" height="1" fill="#FFF"/><rect x="17" y="8" width="1" height="4" fill="#EEccc5"/><rect x="11" y="10" width="2" height="1" fill="#EEccc5"/><rect x="15" y="12" width="2" height="1" fill="#EEccc5"/><rect x="13" y="13" width="2" height="1" fill="#EEccc5"/><rect x="11" y="20" width="1" height="2" fill="#EEccc5"/><rect x="15" y="20" width="1" height="1" fill="#EEccc5"/><rect x="14" y="21" width="1" height="1" fill="#EEccc5"/><rect x="14" y="9" width="1" height="1" fill="#f06a85"/><rect x="12" y="11" width="1" height="1" fill="#f06a85"/><rect x="3" y="13" width="2" height="4" fill="#4B0000"/><rect x="18" y="13" width="3" height="3" fill="#4B0000"/><rect x="2" y="14" width="1" height="2" fill="#4B0000"/><rect x="5" y="14" width="1" height="2" fill="#4B0000"/><rect x="21" y="14" width="1" height="4" fill="#4B0000"/><rect x="17" y="15" width="1" height="1" fill="#4B0000"/><rect x="19" y="16" width="2" height="1" fill="#4B0000"/><rect x="4" y="17" width="1" height="2" fill="#4B0000"/><rect x="9" y="17" width="4" height="1" fill="#9b1717"/><rect x="13" y="18" width="1" height="1" fill="#6e0202"/><rect x="16" y="18" width="2" height="1" fill="#6e0202"/><rect x="10" y="19" width="3" height="1" fill="#6e0202"/><rect x="18" y="19" width="1" height="1" fill="#6e0202"/><rect x="15" y="19" width="1" height="1" fill="#d5b4ae"/><rect x="12" y="20" width="1" height="2" fill="#c8a8a2"/><rect x="14" y="20" width="1" height="1" fill="#c8a8a2"/></svg>