<svg viewBox="0 0 24 24" xmlns="http://www.w3.org/2000/svg">
  <!-- Zombie Monster -->
  <!-- Head with damage -->
  <rect x="7" y="4" width="10" height="9" fill="#556B2F"/>
  <rect x="6" y="5" width="1" height="7" fill="#556B2F"/>
  <rect x="17" y="5" width="1" height="7" fill="#556B2F"/>
  
  <!-- Damaged areas -->
  <rect x="9" y="5" width="2" height="2" fill="#3E5F1B"/>
  <rect x="15" y="7" width="2" height="2" fill="#3E5F1B"/>
  
  <!-- Eyes -->
  <rect x="8" y="8" width="2" height="2" fill="#DC143C"/>
  <rect x="14" y="8" width="2" height="2" fill="#DC143C"/>
  
  <!-- Mouth with exposed teeth -->
  <rect x="9" y="11" width="6" height="1" fill="#000000"/>
  <rect x="10" y="12" width="1" height="1" fill="#FFFFFF"/>
  <rect x="12" y="12" width="1" height="1" fill="#FFFFFF"/>
  <rect x="14" y="12" width="1" height="1" fill="#FFFFFF"/>
  
  <!-- Body with torn clothes -->
  <rect x="6" y="13" width="12" height="7" fill="#556B2F"/>
  <rect x="5" y="14" width="1" height="5" fill="#556B2F"/>
  <rect x="18" y="14" width="1" height="5" fill="#556B2F"/>
  
  <!-- Torn clothing -->
  <rect x="7" y="14" width="3" height="3" fill="#4B0082"/>
  <rect x="14" y="15" width="3" height="2" fill="#4B0082"/>
  <rect x="11" y="17" width="2" height="2" fill="#4B0082"/>
  
  <!-- Arms -->
  <rect x="3" y="14" width="2" height="4" fill="#556B2F"/>
  <rect x="19" y="14" width="2" height="4" fill="#556B2F"/>
  <rect x="2" y="15" width="1" height="2" fill="#556B2F"/>
  <rect x="21" y="15" width="1" height="2" fill="#556B2F"/>
  
  <!-- Legs -->
  <rect x="7" y="20" width="3" height="2" fill="#556B2F"/>
  <rect x="14" y="20" width="3" height="2" fill="#556B2F"/>
  <rect x="8" y="22" width="2" height="1" fill="#556B2F"/>
  <rect x="15" y="22" width="2" height="1" fill="#556B2F"/>
</svg>